<svg xmlns="http://www.w3.org/2000/svg" width="64" height="64" viewBox="0 0 64 64"><defs><clipPath id="a"><circle cx="113" cy="16" r="15.5" fill="none"/></clipPath></defs><circle cx="32" cy="32" r="31" fill="#71eaff"/><path fill="#c2a063" d="M32 63a31 31 0 0 0 29.87-22.69c-.67.27-1.38.62-2.11.85-2.2.27-4.65-3.71-7.27 0-2.61-4-5.38 1.08-8.24 0-2.86.78-5.8 1.16-8.74 0-2.93.91-5.87.52-8.73 0a54.07 54.07 0 0 0-8.25 0c-2.61-.23-5.06 1.54-7.26 0-2.21 0-4.17-.86-5.8 0-1.27.05-2.34-.43-3.18-.29A31 31 0 0 0 32 63z"/><path fill="#647600" d="M31.05 47.56a1 1 0 0 1-.32-.3 1.28 1.28 0 0 1-.21-.38 2.09 2.09 0 0 1-.11-.43 3.22 3.22 0 0 1 0-.43 5.67 5.67 0 0 1 .1-1.09 9.34 9.34 0 0 1 .27-1c.11-.35.23-.69.36-1s.26-.68.38-1v-1.28L30 40.18a3.18 3.18 0 0 1-.62.6 7.31 7.31 0 0 1-.7.43l-.76.35c-.26.11-.52.24-.79.38L27 42l-.1.06a.22.22 0 0 0-.09.07h-.05l-.66 1.32a.12.12 0 0 1 0 .05.81.81 0 0 0 .1.35 2.14 2.14 0 0 0 .23.38 2.26 2.26 0 0 0 .29.32 1.54 1.54 0 0 0 .27.22v.12L26 45h-2.22l-.33-.1-.19-.35-.14-.29A2.15 2.15 0 0 1 23 44a1.9 1.9 0 0 1-.14-.4c0-.14-.06-.28-.08-.42s0-.29-.05-.43l-.06-.41h-.22l-1.59.84c-.52.28-1.05.55-1.59.8s-1.07.48-1.62.69a16 16 0 0 1-1.7.54l-.69.15-1.06.24-1.2.32-1.23.28-1.05.23-.69.14c-.65.11-1.29.19-1.93.24s-1.3.09-1.95.09h-.36a.35.35 0 0 1-.14-.06.18.18 0 0 1-.06-.15.2.2 0 0 1 0-.07l.41-.11.54-.1.46-.11.35-.06h.44l-.66-.87V45h.11l.11.06a1.61 1.61 0 0 0 .18.17l.31.24.31.23a1.23 1.23 0 0 0 .2.13h.34l.31-.04a.76.76 0 0 0 .23-.15.13.13 0 0 0 0-.18l-.78-1.1v-.31l1 .87a.8.8 0 0 0 .13-.13l.09-.15.1-.15a.49.49 0 0 1 .12-.13v.89l.21.21.13-.06.3-.14.36-.18.32-.16a.87.87 0 0 0 .33-.33 2.92 2.92 0 0 0 .22-.47c.06-.17.13-.34.19-.52a2 2 0 0 1 .24-.44.09.09 0 0 1 .09.05.36.36 0 0 1 0 .11.24.24 0 0 1 0 .12v.08a1.34 1.34 0 0 1-.06.4 1 1 0 0 0-.07.39.35.35 0 0 0 .22-.16 1 1 0 0 0 .09-.22c0-.08.05-.16.08-.23a.28.28 0 0 1 .17-.15 1.69 1.69 0 0 0 .7 0 1.47 1.47 0 0 0 .53-.21 1.54 1.54 0 0 0 .38-.34 2.47 2.47 0 0 0 .25-.38c.07-.12.12-.22.16-.3s.05-.12.06-.12h.89l1.38-1.2a.29.29 0 0 0 .06-.1.67.67 0 0 1 .06-.12v-.06a1.07 1.07 0 0 0-.07-.41 1.44 1.44 0 0 1-.06-.43v-.06a1.36 1.36 0 0 1 0-.2c0-.07.05-.11.11-.11h1.09a.77.77 0 0 0 .05-.19v-.16a1.21 1.21 0 0 0 0-.14 1.22 1.22 0 0 1 0-.22v-.88l1.64-.34s.1-.05.2-.15l.29-.33.26-.33.13-.17a.78.78 0 0 0-.15-.16l-.14-.11a.3.3 0 0 1-.1-.14.48.48 0 0 1-.05-.24v-1.78a.41.41 0 0 0 0-.09 1.18 1.18 0 0 1 .08-.16.14.14 0 0 1 .1-.08h1v-1.26l.16-.16h2.53l.66-.94a.41.41 0 0 0-.22-.21l-.31-.09a1.28 1.28 0 0 1-.33-.11.45.45 0 0 1-.24-.25v-.22a1.16 1.16 0 0 1 0-.18 1 1 0 0 1 0-.15v-.11c0-.29 0-.57-.06-.84a3.32 3.32 0 0 0-.16-.81c0-.11-.08-.22-.13-.33l-.15-.34a2.19 2.19 0 0 1-.12-.33 1.4 1.4 0 0 1 0-.34.24.24 0 0 1 0-.15s.08-.06.18-.06h2.65v-2.09l.08-.06h.9a3.72 3.72 0 0 1 1 .13 8.47 8.47 0 0 1 1 .32c.32.12.63.26.94.4l.86.38v-.78s0-.12.07-.24a4 4 0 0 1 .14-.41l.17-.51c.06-.18.12-.34.18-.5s.1-.3.14-.41a1 1 0 0 0 .06-.24 1.23 1.23 0 0 0 0-.22v-.77a1.23 1.23 0 0 1 0-.22v-.27c0-.05.07-.08.17-.08a.51.51 0 0 1 .26.09l.29.2.27.23.17.16.23.21.37.35.39.35a2.55 2.55 0 0 0 .23.19 1.5 1.5 0 0 0 .23.15 4.2 4.2 0 0 0 .38.24l.38.24.22.14.11.11h.06a.46.46 0 0 0 .28-.17 2.55 2.55 0 0 0 .34-.41c.13-.16.26-.34.4-.53a6.35 6.35 0 0 1 .42-.54 2.75 2.75 0 0 1 .44-.41.71.71 0 0 1 .43-.17.49.49 0 0 1 .4.22 2 2 0 0 1 .27.52c.07.2.14.39.2.59a1.39 1.39 0 0 0 .18.45h.05a.71.71 0 0 0 .37-.1 3.75 3.75 0 0 0 .36-.24L40 23a.76.76 0 0 1 .39-.1h.24s.08.05.1.11l.54 2.2v.06a.89.89 0 0 1-.06.31 2.57 2.57 0 0 1-.15.29l.12.07.2.11.2.1.13.05h.12l.31-.23.46-.37.47-.37.3-.24h.06l.1-.06.11-.07h.06l.12-.06h.17l.07.1.06.1a.31.31 0 0 1 0 .08H45v3.09h.08a.3.3 0 0 1 .08.07l.14.13.24.21.24.2.15.12a1.22 1.22 0 0 1 .29-.31 2.24 2.24 0 0 1 .81-.42 1.52 1.52 0 0 1 .42-.06h.13l.06.11c.06.11 0 .1.06.1a.34.34 0 0 0 .21.06H48a.09.09 0 0 1 .08.05 1.11 1.11 0 0 1 0 .26 3.94 3.94 0 0 0 0 .47v.52a2.44 2.44 0 0 1 0 .48.78.78 0 0 1-.21.38l.23.25a2.65 2.65 0 0 0 .29.29 1.41 1.41 0 0 0 .32.24.57.57 0 0 0 .31.1h.17l.23-.07.39-.14.38-.15.22-.08h.06a.36.36 0 0 1 .24.07.58.58 0 0 1 .16.19 2 2 0 0 1 .08.26 2.29 2.29 0 0 1 0 .25 1.09 1.09 0 0 1-.06.36 1 1 0 0 0-.06.36.22.22 0 0 0 .06.12l.14.12.15.09h.09l.13.06h.15v-.06l.55-.34.13-.06a.27.27 0 0 1 .1 0 .78.78 0 0 1 .27 0v.91l.27.11.16.07h.34a.64.64 0 0 0 .28-.06.61.61 0 0 1 .28-.06.21.21 0 0 1 .17.08 1 1 0 0 1 .11.2 1.42 1.42 0 0 1 .07.22.53.53 0 0 1 0 .16l.18.08.26.1a1.48 1.48 0 0 0 .27.1l.18.06a.43.43 0 0 0 .25-.07.58.58 0 0 1 .26-.06.15.15 0 0 1 .12.05l.07.14.07.15a.27.27 0 0 0 .16.11l.21.06.36.1.43.12.44.12.35.1.2.06.22.1.44.21.49.25.38.2a.54.54 0 0 1 .16.09 1.46 1.46 0 0 1 .21.16 1.18 1.18 0 0 1 .2.17.41.41 0 0 1 .1.14.24.24 0 0 1-.05.22.67.67 0 0 1-.19.14L60 37h-1.12l-.93-.09-.95-.12h-2.17c-.46 0-1 0-1.52.11a13.86 13.86 0 0 0-1.67.28 9.16 9.16 0 0 0-1.58.53 4.29 4.29 0 0 0-1.29.84l-2.42 2.3v.23a2.76 2.76 0 0 1 .08.35c0 .16.08.34.13.53s.09.36.13.53.08.29.1.35a.56.56 0 0 1 .26.32 1 1 0 0 1 .09.39.34.34 0 0 1 0 .09v.08a6.52 6.52 0 0 1-1.27.12h-1.26a3.26 3.26 0 0 0-.09.53 3.89 3.89 0 0 0 0 .51.36.36 0 0 0 .06.22l.12.16.12.15a.29.29 0 0 1 0 .19c0 .06 0 .1-.12.14a1.31 1.31 0 0 1-.33.09 2.62 2.62 0 0 1-.43.06h-1.12a1.71 1.71 0 0 1-.36 0 1.42 1.42 0 0 1-.4-.12.87.87 0 0 1-.32-.22.49.49 0 0 1-.13-.33.41.41 0 0 1 0-.1V45a.43.43 0 0 1 0-.1 1.3 1.3 0 0 1 .08-.17 1.22 1.22 0 0 0 .07-.17.27.27 0 0 0 0-.1 8.22 8.22 0 0 0 .07-.91c0-.33 0-.67.05-1a7.41 7.41 0 0 1 .13-1 2.39 2.39 0 0 1 .3-.84h-.33c-.29.05-.57.1-.84.17l-.82.18c-.28.06-.55.11-.83.15a6 6 0 0 1-.86.06 9.24 9.24 0 0 1-1.05-.06 9.24 9.24 0 0 0-1-.06v.37a3 3 0 0 1-.06.42c0 .13-.06.27-.09.4a1.69 1.69 0 0 1-.15.36 3.71 3.71 0 0 1-.37.49l-.47.53c-.17.18-.33.36-.49.55a5.57 5.57 0 0 0-.43.56 3 3 0 0 0-.32.58 1.52 1.52 0 0 0-.2.59.82.82 0 0 0 .14.47 2.69 2.69 0 0 0 .3.37 3.47 3.47 0 0 1 .3.37.76.76 0 0 1 .13.46h-1.91z"/><g clip-path="url(#a)"><path fill="#647600" d="M87 30.2a1.6 1.6 0 0 1-.43-.39 2.49 2.49 0 0 1-.27-.51 2.28 2.28 0 0 1-.15-.57 3.66 3.66 0 0 1-.05-.57 7.64 7.64 0 0 1 .14-1.44 11.35 11.35 0 0 1 .36-1.39c.14-.46.3-.91.48-1.36s.34-.9.5-1.36V21l-2-.62a3.85 3.85 0 0 1-.83.79 5.52 5.52 0 0 1-.93.57c-.32.17-.65.33-1 .48s-.69.31-1 .49l-.12.07-.14.08-.12.09-.07.06-.87 1.75a.26.26 0 0 0 0 .07 1 1 0 0 0 .13.47 2.87 2.87 0 0 0 .31.49 3.16 3.16 0 0 0 .38.43 2.08 2.08 0 0 0 .36.29v.16c-.48.05-.92.09-1.3.11s-.79 0-1.2 0h-1.83l-.43-.13-.25-.46-.19-.39-.15-.32a2.55 2.55 0 0 1-.18-.53c0-.19-.08-.37-.11-.56s-.05-.38-.07-.56 0-.37-.07-.55h-.3l-2.1 1.12c-.7.37-1.4.72-2.11 1.06s-1.43.64-2.15.92a20.47 20.47 0 0 1-2.26.7l-.92.2-1.39.32c-.52.12-1.06.25-1.64.37l-1.63.37-1.4.36-.91.18c-.86.15-1.71.25-2.56.33s-1.72.11-2.59.11h-.44a.47.47 0 0 1-.19-.08.21.21 0 0 1-.08-.2.31.31 0 0 1 0-.09.18.18 0 0 0 0-.06 3.7 3.7 0 0 0 .46-.07l.71-.14.7-.14.47-.08h.12l.18-.05h.28l-.87-1.16v-.3l.15.07a.39.39 0 0 1 .14.08 1.6 1.6 0 0 0 .25.22c.12.1.25.21.4.32l.41.3.26.18h.45a2.78 2.78 0 0 0 .38-.12 1.1 1.1 0 0 0 .3-.19.18.18 0 0 0 0-.24l-1-1.47v-.41l1.32 1.16a.69.69 0 0 0 .17-.17l.13-.2.12-.2A.93.93 0 0 1 59 26v1.18l.29.29.17-.08.4-.19c.16-.08.32-.15.48-.24l.42-.21a1.16 1.16 0 0 0 .44-.44 4.6 4.6 0 0 0 .29-.63c.08-.22.17-.45.25-.68a2.55 2.55 0 0 1 .32-.59.15.15 0 0 1 .12.07.27.27 0 0 1 0 .15.76.76 0 0 1 0 .15.57.57 0 0 0 0 .12 1.77 1.77 0 0 1-.08.52 1.5 1.5 0 0 0-.09.52V26a.46.46 0 0 0 .29-.2 1.3 1.3 0 0 0 .13-.3 1.76 1.76 0 0 1 .1-.3.4.4 0 0 1 .23-.21 2.1 2.1 0 0 0 .92 0 1.75 1.75 0 0 0 .7-.28 2.22 2.22 0 0 0 .51-.45 4.44 4.44 0 0 0 .34-.5l.2-.4c0-.11.07-.17.09-.17h1.17l1.75-1.75a.58.58 0 0 0 .08-.14.6.6 0 0 1 .08-.16v-.07a1.69 1.69 0 0 0-.09-.56 1.94 1.94 0 0 1-.08-.56v-.08a2.45 2.45 0 0 1 0-.27c0-.09.07-.14.15-.14h1.45l.07-.25v-1.86l2.18-.45a.6.6 0 0 0 .26-.21c.12-.13.25-.27.38-.43l.35-.44a1.11 1.11 0 0 1 .18-.22.68.68 0 0 0-.2-.21l-.19-.14a.94.94 0 0 1-.14-.19.7.7 0 0 1-.06-.32v-2.36a.87.87 0 0 0 0-.12 2.21 2.21 0 0 1 .11-.21c0-.08.09-.12.13-.12H75v-1.59l.21-.23h3.36l.88-1.24a.51.51 0 0 0-.29-.27 2.58 2.58 0 0 0-.42-.12 3.09 3.09 0 0 1-.43-.14.63.63 0 0 1-.37-.34 3 3 0 0 1-.07-.3 1.69 1.69 0 0 1-.05-.24.81.81 0 0 1 0-.19v-.15c0-.38-.06-.75-.08-1.11a4.13 4.13 0 0 0-.21-1.08 3.93 3.93 0 0 0-.18-.43l-.19-.45A2.69 2.69 0 0 1 77 3.6a1.67 1.67 0 0 1-.06-.44A.41.41 0 0 1 77 3a.34.34 0 0 1 .25-.07h3.51V.11l.11-.09L81 0h.57a5.32 5.32 0 0 1 1.29.17 9.71 9.71 0 0 1 1.29.42c.43.16.84.34 1.24.53s.79.35 1.15.5v-.51c0-.11 0-.22.06-.31s0-.17 0-.21 0-.15.08-.31.12-.34.19-.55.15-.43.23-.67.16-.46.24-.67l.18-.55a3.1 3.1 0 0 0 .09-.31 2.32 2.32 0 0 0 0-.3v-1.01a1.09 1.09 0 0 1 0-.3c0-.17 0-.29.05-.36s.09-.1.22-.1a.7.7 0 0 1 .35.12 4.56 4.56 0 0 1 .39.27l.35.3.23.22a3.69 3.69 0 0 1 .29.27l.5.46.51.47a2.67 2.67 0 0 0 .32.25 3 3 0 0 0 .29.2l.51.32.5.31.3.19.15.15h.07a.59.59 0 0 0 .38-.22 4.76 4.76 0 0 0 .45-.55c.16-.21.34-.45.52-.71s.37-.49.57-.71a4.15 4.15 0 0 1 .57-.55A1 1 0 0 1 96-4a.61.61 0 0 1 .53.29 2.58 2.58 0 0 1 .36.68c.1.27.18.53.26.79a2.6 2.6 0 0 0 .23.6h.08a1 1 0 0 0 .49-.14l.48-.31a4.76 4.76 0 0 1 .47-.31 1.1 1.1 0 0 1 .52-.14h.32a.17.17 0 0 1 .13.14l.72 2.92v.1a1.14 1.14 0 0 1-.09.42 2.69 2.69 0 0 1-.19.38l.16.1.27.14.26.13.18.07h.15l.4-.31.63-.49.64-.49.41-.32h.07l.14-.09.14-.09.08-.06.16-.14h.12a.24.24 0 0 1 .09.06l.09.13a.39.39 0 0 1 .08.14.26.26 0 0 1 0 .1h1.09v4.1l.11.05a.57.57 0 0 1 .11.1l.19.17.31.28.32.26.2.16a1.84 1.84 0 0 1 .38-.41 2.78 2.78 0 0 1 .51-.33 3 3 0 0 1 .56-.23 2.29 2.29 0 0 1 .56-.08h.18s.06.05.08.14 0 .14.07.14a.47.47 0 0 0 .29.08h.17a.1.1 0 0 1 .1.06 1.93 1.93 0 0 1 0 .34v1.32a3.3 3.3 0 0 1-.07.64 1 1 0 0 1-.27.49 3.56 3.56 0 0 0 .29.34 3.59 3.59 0 0 0 .39.39 2.52 2.52 0 0 0 .43.32.76.76 0 0 0 .41.13h.23a2.21 2.21 0 0 0 .3-.09l.51-.19.51-.19.29-.11h.08a.52.52 0 0 1 .33.1.82.82 0 0 1 .2.25 1.93 1.93 0 0 1 .11.34 2 2 0 0 1 0 .34 1.5 1.5 0 0 1-.08.47 1.19 1.19 0 0 0-.08.47.24.24 0 0 0 .08.16l.19.16a1.13 1.13 0 0 0 .2.13l.11.06.17.09h.13l.07-.06.07-.08.73-.44.17-.09.13-.05a1.25 1.25 0 0 1 .36 0v1.21l.36.14.21.1.14.05h.31a.75.75 0 0 0 .37-.09.87.87 0 0 1 .37-.08.28.28 0 0 1 .23.11.93.93 0 0 1 .15.26 1.9 1.9 0 0 1 .09.29 1.22 1.22 0 0 1 0 .22l.23.1.35.14.36.14a1.57 1.57 0 0 0 .23.06h.07a.63.63 0 0 0 .34-.08.63.63 0 0 1 .33-.09.19.19 0 0 1 .17.08l.09.17a2 2 0 0 0 .1.21.37.37 0 0 0 .21.14l.27.08.48.13.57.16.58.16.47.13.26.08a2.39 2.39 0 0 1 .3.14l.58.28.66.33.5.26a1 1 0 0 1 .2.12l.29.21.27.23a.47.47 0 0 1 .12.19.32.32 0 0 1-.07.29.8.8 0 0 1-.25.18 1.17 1.17 0 0 1-.32.09h-.27c-.41 0-.81 0-1.22-.05l-1.1-.12-1.23-.12c-.41 0-.81-.05-1.22-.05h-1.63c-.62 0-1.3.07-2 .15a17 17 0 0 0-2.21.38 12.29 12.29 0 0 0-2.1.69 6 6 0 0 0-1.71 1.12l-3.2 3.06a1 1 0 0 0 0 .14v.09a.35.35 0 0 0 0 .07c0 .08 0 .24.1.46s.11.46.17.7.12.49.17.71.11.38.14.46a.86.86 0 0 1 .35.42 1.57 1.57 0 0 1 .11.53v.11a.54.54 0 0 0 0 .11 10.19 10.19 0 0 1-1.69.17h-1.67a6.33 6.33 0 0 0-.13.7v.67a.51.51 0 0 0 .07.3 1.92 1.92 0 0 0 .16.21 1.56 1.56 0 0 1 .16.2.4.4 0 0 1 .08.26c0 .07-.06.13-.17.18a2 2 0 0 1-.43.12 4.85 4.85 0 0 1-.58.07h-1.48a3.08 3.08 0 0 1-.48 0 2.86 2.86 0 0 1-.52-.16 1.5 1.5 0 0 1-.43-.3.64.64 0 0 1-.17-.44v-.14a.51.51 0 0 0 0-.1.4.4 0 0 1 0-.13c0-.07.06-.15.1-.23a2.14 2.14 0 0 0 .1-.22.59.59 0 0 0 0-.14 10.38 10.38 0 0 0 .1-1.2c0-.45 0-.89.06-1.35s.09-.89.16-1.31a3.41 3.41 0 0 1 .41-1.11h-.44c-.38.06-.75.14-1.11.22l-1.09.25c-.37.08-.73.14-1.1.19a7.12 7.12 0 0 1-1.14.08 10.8 10.8 0 0 1-1.39-.08 13.13 13.13 0 0 0-1.4-.07h-.06v.49c0 .18-.05.36-.08.55s-.08.36-.13.54a2.2 2.2 0 0 1-.19.47 5.41 5.41 0 0 1-.5.65l-.62.7c-.22.24-.43.48-.64.73a5.79 5.79 0 0 0-.58.75 3.37 3.37 0 0 0-.42.76 2 2 0 0 0-.16.78 1.07 1.07 0 0 0 .18.63 3.81 3.81 0 0 0 .4.5c.14.15.27.31.4.48a1 1 0 0 1 .18.61c-.87 0-1.71 0-2.54-.05z"/></g></svg>