<svg xmlns="http://www.w3.org/2000/svg" width="16" height="16" viewBox="0 0 16 16"><defs><clipPath id="a"><circle cx="8" cy="8" r="8" fill="none"/></clipPath></defs><circle cx="8" cy="8" r="8" fill="#71eaff"/><path fill="#c2a063" d="M8 16a8 8 0 0 0 7.71-5.86 5.25 5.25 0 0 1-.55.22c-.56.07-1.2-.95-1.87 0-.68-1-1.39.28-2.13 0a3.4 3.4 0 0 1-2.25 0 4.55 4.55 0 0 1-2.26 0 15.14 15.14 0 0 0-2.13 0c-.67-.06-1.3.4-1.87 0-.57 0-1.07-.22-1.5 0-.32 0-.6-.11-.82-.07A8 8 0 0 0 8 16z"/><g clip-path="url(#a)"><path fill="#647600" d="M-5.42 15.33a.85.85 0 0 1-.22-.2.87.87 0 0 1-.14-.27 1 1 0 0 1-.08-.29v-.29a3.67 3.67 0 0 1 .07-.75c0-.24.11-.48.18-.71s.16-.47.25-.71.18-.46.26-.7v-.81l-1-.32a2.36 2.36 0 0 1-.43.41 3.82 3.82 0 0 1-.48.29 4.9 4.9 0 0 1-.52.24l-.53.26h-.07l-.07.05h-.06l-.44.91a.44.44 0 0 0 .07.24 1.35 1.35 0 0 0 .15.26l.2.22a.77.77 0 0 0 .19.15v.08l-.67.06h-1.52l-.22-.07a1.47 1.47 0 0 1-.13-.24l-.1-.19-.08-.17a1.31 1.31 0 0 1-.09-.28 2.74 2.74 0 0 1-.05-.28v-.58h-.15l-1.09.58-1.08.55c-.37.17-.74.33-1.12.47a8.72 8.72 0 0 1-1.16.37l-.47.1-.73.16-.84.2c-.3.06-.58.12-.84.19l-.72.15-.47.1c-.45.07-.89.13-1.33.17s-.88.06-1.33.06h-.33a.12.12 0 0 1 0-.1.09.09 0 0 1 0-.05h.24l.36-.07.37-.07h.54l-.45-.59v-.16h.08l.07.05.13.11.2.17.21.15.14.1h.24l.19-.06a.56.56 0 0 0 .15-.1.11.11 0 0 0 0-.13l-.54-.75v-.22l.68.6a.2.2 0 0 0 .09-.09.36.36 0 0 0 .07-.1l.06-.1a.24.24 0 0 1 .08-.09v.61l.15.14h.09l.21-.1.25-.12.21-.11a.69.69 0 0 0 .23-.22l.15-.33c0-.11.09-.23.13-.35a1.29 1.29 0 0 1 .16-.31h.07a.19.19 0 0 1 0 .08.21.21 0 0 1 0 .08v.06a.84.84 0 0 1 0 .27.75.75 0 0 0-.05.26c.08 0 .13-.06.15-.11a1 1 0 0 0 .07-.15.75.75 0 0 1 .05-.16.18.18 0 0 1 .12-.1 1.09 1.09 0 0 0 .47 0 1.09 1.09 0 0 0 .37-.14 1.2 1.2 0 0 0 .26-.24 1.28 1.28 0 0 0 .17-.26c.05-.08.08-.15.11-.2a.41.41 0 0 1 0-.09h.61l.9-.9a.16.16 0 0 0 0-.07.39.39 0 0 1 0-.09.88.88 0 0 0 0-.29.88.88 0 0 1-.18-.4.66.66 0 0 1 0-.14s0-.07.07-.07h.75v-.25a.64.64 0 0 1 0-.09V8.7l1.12-.23a.44.44 0 0 0 .14-.11 2.33 2.33 0 0 0 .19-.23l.18-.22.09-.12a.36.36 0 0 0-.1-.11l-.09-.07a.39.39 0 0 1-.08-.1.32.32 0 0 1 0-.16V6.34a1.69 1.69 0 0 1 0-.21v-.06l.05-.11s0-.06.07-.06h.72v-.82l.11-.12h1.98l.46-.64a.23.23 0 0 0-.15-.14l-.22-.06-.22-.12a.31.31 0 0 1-.17-.17v-.28a.38.38 0 0 1 0-.1v-.61a2.15 2.15 0 0 0-.11-.55l-.09-.23a1.6 1.6 0 0 1-.1-.23 2.18 2.18 0 0 1-.09-.23.91.91 0 0 1 0-.23.15.15 0 0 1 0-.1h1.93V-.2h.45a2.61 2.61 0 0 1 .67.08 5.82 5.82 0 0 1 .56.12l.64.27a5.92 5.92 0 0 0 .59.26.51.51 0 0 1 0-.1.88.88 0 0 1 0-.16.78.78 0 0 1 0-.16.53.53 0 0 1 0-.11v-.16c0-.08.06-.18.1-.28l.12-.35.12-.35c0-.1.07-.2.1-.28a1.17 1.17 0 0 0 0-.16.88.88 0 0 0 0-.15C-5-1.8-5-1.88-5-2v-.59c0-.03.05-.06.12-.06a.32.32 0 0 1 .17.06l.2.14.19.16.12.11.2.18.25.24.27.24a.87.87 0 0 0 .16.13l.15.11.26.16.26.16.16.1.07.07a.29.29 0 0 0 .19-.11 2.32 2.32 0 0 0 .24-.28c.08-.12.17-.24.27-.37a3.65 3.65 0 0 1 .29-.37 1.92 1.92 0 0 1 .3-.28.47.47 0 0 1 .3-.11.32.32 0 0 1 .27.15 1.66 1.66 0 0 1 .19.35c0 .14.09.27.13.41a1.54 1.54 0 0 0 .12.3H0a.45.45 0 0 0 .25-.07l.25-.16.21-.17A.68.68 0 0 1 1-1.57h.17a.09.09 0 0 1 .06.07L1.59 0a.63.63 0 0 1-.05.22l-.1.2h.08l.14.18.14.07H2l.18-.13.32-.25.31-.29L3-.13h.29l.05.07a.16.16 0 0 1 0 .07h.56V2h.06a.15.15 0 0 1 .06 0 .73.73 0 0 0 .09.09l.17.14.16.14.1.08A1 1 0 0 1 5 2.3l.26-.17A1.15 1.15 0 0 1 5.5 2a1 1 0 0 1 .29 0h.09v.14a.19.19 0 0 0 .15 0h.17a.63.63 0 0 1 0 .17v.68a1.86 1.86 0 0 1 0 .34.51.51 0 0 1-.14.25l.15.18.2.2a1.53 1.53 0 0 0 .22.16.4.4 0 0 0 .21.07h.32l.26-.09.28-.1.15-.06a.34.34 0 0 1 .21.06.5.5 0 0 1 .1.14.48.48 0 0 1 .05.17.52.52 0 0 1 0 .17.69.69 0 0 1 0 .25.61.61 0 0 0 0 .24.09.09 0 0 0 0 .08l.1.09.1.06h.21l.43-.2h.34v.63l.19.07.11.05h.23a.38.38 0 0 0 .19-.05.41.41 0 0 1 .19 0 .14.14 0 0 1 .12.06.41.41 0 0 1 .08.13.83.83 0 0 1 0 .15.28.28 0 0 1 0 .11l.12.06.18.07.18.07h.12a.39.39 0 0 0 .18 0 .33.33 0 0 1 .17 0h.08v.09a.54.54 0 0 0 .05.11.18.18 0 0 0 .11.07h.14l.24.07.3.08.3.09.24.07h.14l.15.07.3.14.34.17.26.14a.28.28 0 0 1 .1.06l.15.11.14.12a.36.36 0 0 1 .07.09.19.19 0 0 1 0 .15l-.13.1a.47.47 0 0 1-.17 0h-.77L13 8h-2.11c-.32 0-.66 0-1 .08a8.75 8.75 0 0 0-1.14.19 6.63 6.63 0 0 0-1.09.36 3 3 0 0 0-.88.58l-1.72 1.51a.28.28 0 0 0 0 .08v.08s0 .12.05.24l.09.36.09.37a1.7 1.7 0 0 0 .07.23.44.44 0 0 1 .18.22 1 1 0 0 1 0 .27v.06a.18.18 0 0 0 0 .06 4.85 4.85 0 0 1-.87.08h-.86c0 .14-.05.26-.07.37s0 .21 0 .34a.25.25 0 0 0 0 .16.39.39 0 0 0 .08.1.76.76 0 0 1 .08.11.18.18 0 0 1 .1.15s0 .07-.09.09a1 1 0 0 1-.22.07 2.53 2.53 0 0 1-.3 0h-1a1.43 1.43 0 0 1-.27-.09.48.48 0 0 1-.22-.15.32.32 0 0 1-.09-.23v-.12a.14.14 0 0 1 0-.07.54.54 0 0 1 0-.11.61.61 0 0 0 .05-.12.14.14 0 0 0 0-.07 5.44 5.44 0 0 0 .14-.6v-.7c0-.24 0-.46.08-.67a1.74 1.74 0 0 1 .21-.58h-.17c-.2 0-.39.07-.58.12l-.54.12-.59.11a5.46 5.46 0 0 1-.58 0H-.9a5.58 5.58 0 0 0-.72 0v.53a2.29 2.29 0 0 1-.07.28 1.33 1.33 0 0 1-.1.24 1.92 1.92 0 0 1-.26.34l-.32.36-.33.38c-.11.13-.21.25-.3.38a1.93 1.93 0 0 0-.21.4 1 1 0 0 0-.09.4.52.52 0 0 0 .1.33 2.43 2.43 0 0 0 .2.25 2.32 2.32 0 0 1 .21.25.55.55 0 0 1 .09.32h-1.31z"/></g></svg>