<svg xmlns="http://www.w3.org/2000/svg" width="32" height="32" viewBox="0 0 32 32"><defs><clipPath id="a"><circle cx="16" cy="16" r="15.5" fill="none"/></clipPath></defs><circle cx="16" cy="16" r="15.5" fill="#71eaff"/><path fill="#c2a063" d="M16 31.5a15.51 15.51 0 0 0 14.94-11.35 11.17 11.17 0 0 1-1.06.43c-1.1.14-2.33-1.85-3.63 0-1.31-2-2.7.54-4.13 0a6.71 6.71 0 0 1-4.36 0 9.1 9.1 0 0 1-4.37 0 25.75 25.75 0 0 0-4.12 0c-1.31-.12-2.53.77-3.64 0-1.1 0-2.08-.43-2.89 0-.64 0-1.18-.21-1.59-.14A15.5 15.5 0 0 0 16 31.5z"/><g clip-path="url(#a)"><path fill="#647600" d="M-10 30.2a1.6 1.6 0 0 1-.43-.39 2.49 2.49 0 0 1-.27-.51 2.28 2.28 0 0 1-.15-.57 3.66 3.66 0 0 1-.05-.57 7.64 7.64 0 0 1 .14-1.44 11.35 11.35 0 0 1 .36-1.39c.14-.46.3-.91.48-1.36s.34-.9.5-1.36V21l-2-.62a3.85 3.85 0 0 1-.83.79 5.52 5.52 0 0 1-.93.57c-.32.17-.65.33-1 .48s-.69.31-1 .49l-.12.07-.14.08-.12.09-.07.06-.87 1.75a.26.26 0 0 0 0 .07 1 1 0 0 0 .13.47 2.87 2.87 0 0 0 .31.49 3.16 3.16 0 0 0 .38.43 2.08 2.08 0 0 0 .36.29v.16c-.48.05-.92.09-1.3.11s-.79 0-1.2 0h-1.74l-.43-.13-.25-.46-.19-.39-.15-.32a2.55 2.55 0 0 1-.18-.53c0-.19-.08-.37-.11-.56s-.05-.38-.07-.56 0-.37-.07-.55h-.3l-2.1 1.12c-.7.37-1.4.72-2.11 1.06s-1.43.64-2.15.92a20.47 20.47 0 0 1-2.26.7l-.92.2-1.39.32c-.52.12-1.06.25-1.64.37l-1.63.37-1.4.31-.91.18c-.86.15-1.71.25-2.56.33s-1.72.11-2.59.11h-.44a.47.47 0 0 1-.19-.08.21.21 0 0 1-.08-.2.31.31 0 0 1 0-.09.18.18 0 0 0 0-.06 3.7 3.7 0 0 0 .46-.07l.71-.14.7-.14.47-.08h.12l.18-.05h.28l-.87-1.16v-.3l.15.07a.39.39 0 0 1 .14.08 1.6 1.6 0 0 0 .25.22c.12.1.25.21.4.32l.41.3.26.18h.45a2.78 2.78 0 0 0 .38-.12 1.1 1.1 0 0 0 .3-.19.18.18 0 0 0 0-.24l-1-1.47v-.41l1.32 1.16a.69.69 0 0 0 .17-.17l.13-.2.12-.2A.93.93 0 0 1-38 26v1.18l.29.29.17-.08.4-.19c.16-.08.32-.15.48-.24l.42-.21a1.16 1.16 0 0 0 .44-.44 4.6 4.6 0 0 0 .29-.63c.08-.22.17-.45.25-.68a2.55 2.55 0 0 1 .32-.59.15.15 0 0 1 .12.07.27.27 0 0 1 0 .15.76.76 0 0 1 0 .15.57.57 0 0 0 0 .12 1.77 1.77 0 0 1-.08.52 1.5 1.5 0 0 0-.09.52V26a.46.46 0 0 0 .29-.2 1.3 1.3 0 0 0 .13-.3 1.76 1.76 0 0 1 .1-.3.4.4 0 0 1 .23-.21 2.1 2.1 0 0 0 .92 0 1.75 1.75 0 0 0 .7-.28 2.22 2.22 0 0 0 .51-.45 4.44 4.44 0 0 0 .34-.5l.2-.4c0-.11.07-.17.09-.17h1.17l1.75-1.75a.58.58 0 0 0 .08-.14.6.6 0 0 1 .08-.16v-.07a1.69 1.69 0 0 0-.09-.56 1.94 1.94 0 0 1-.08-.56v-.08a2.45 2.45 0 0 1 0-.27c0-.09.07-.14.15-.14h1.45l.07-.25v-.7c0-.14 0-.28.05-.44s0-.3 0-.44v-.28l2.18-.45a.6.6 0 0 0 .26-.21c.12-.13.25-.27.38-.43l.35-.44a1.11 1.11 0 0 1 .18-.22.68.68 0 0 0-.2-.21l-.19-.14a.94.94 0 0 1-.14-.19.7.7 0 0 1-.06-.32v-1.96c0-.19 0-.33.05-.4a.87.87 0 0 0 .05-.12 2.21 2.21 0 0 1 .11-.21c0-.08.09-.12.13-.12H-22v-1.59l.21-.23h3.36l.88-1.24a.51.51 0 0 0-.29-.27 2.58 2.58 0 0 0-.42-.12 3.09 3.09 0 0 1-.43-.14.63.63 0 0 1-.37-.34 3 3 0 0 1-.07-.3 1.69 1.69 0 0 1-.05-.24.81.81 0 0 1 0-.19v-.15c0-.38-.06-.75-.08-1.11a4.13 4.13 0 0 0-.21-1.08 3.93 3.93 0 0 0-.18-.43l-.19-.45A2.69 2.69 0 0 1-20 3.6a1.67 1.67 0 0 1-.06-.44A.41.41 0 0 1-20 3a.34.34 0 0 1 .25-.07h3.51V.11l.11-.09L-16 0h.57a5.32 5.32 0 0 1 1.29.17 9.71 9.71 0 0 1 1.29.42c.43.16.84.34 1.24.53s.79.35 1.15.5v-.51c0-.11 0-.22.06-.31s0-.17.05-.21 0-.15.08-.31.12-.34.19-.55.15-.43.23-.67.16-.46.24-.67l.18-.55a3.1 3.1 0 0 0 .09-.31 2.32 2.32 0 0 0 0-.3v-.51c0-.18 0-.35.05-.5a1.09 1.09 0 0 1 0-.3v-.36c0-.07.09-.1.22-.1a.7.7 0 0 1 .35.12l.39.27.35.3.23.22a3.69 3.69 0 0 1 .29.27l.5.46.51.47a2.67 2.67 0 0 0 .32.25 3 3 0 0 0 .29.2l.51.32.5.31.3.19.15.15h.07a.59.59 0 0 0 .38-.22 4.76 4.76 0 0 0 .45-.55c.16-.21.34-.45.52-.71s.37-.49.57-.71a4.15 4.15 0 0 1 .57-.55A1 1 0 0 1-1-4a.61.61 0 0 1 .53.29A2.58 2.58 0 0 1-.13-3c.1.27.18.53.26.79a2.6 2.6 0 0 0 .23.6h.08a1 1 0 0 0 .49-.14l.48-.31a4.76 4.76 0 0 1 .47-.31 1.1 1.1 0 0 1 .52-.14h.32a.17.17 0 0 1 .13.14L3.57.54v.08a1.14 1.14 0 0 1-.09.38 2.69 2.69 0 0 1-.19.38l.16.1.27.14.28.17.18.07h.15l.4-.31.63-.49L6 .57l.36-.32h.07l.14-.14.14-.11h.08L7-.13h.12a.24.24 0 0 1 .09.06l.05.07a.39.39 0 0 1 .08.14.26.26 0 0 1 0 .1h1.13v4.1l.11.05a.57.57 0 0 1 .11.1l.19.17.31.34.32.26.2.16a1.84 1.84 0 0 1 .38-.42 2.78 2.78 0 0 1 .51-.33 3 3 0 0 1 .56-.23 2.29 2.29 0 0 1 .56-.08h.18s.06.05.08.14 0 .14.07.14a.47.47 0 0 0 .29.08h.17a.1.1 0 0 1 .1.06 1.93 1.93 0 0 1 0 .34v1.32a3.3 3.3 0 0 1-.07.64 1 1 0 0 1-.27.49 3.56 3.56 0 0 0 .29.34 3.59 3.59 0 0 0 .39.39 2.52 2.52 0 0 0 .43.32.76.76 0 0 0 .41.13h.23a2.21 2.21 0 0 0 .3-.09l.51-.19.51-.19.29-.11h.08a.52.52 0 0 1 .33.1.82.82 0 0 1 .2.25 1.93 1.93 0 0 1 .11.34 2 2 0 0 1 0 .34 1.5 1.5 0 0 1-.08.47 1.19 1.19 0 0 0-.08.47.24.24 0 0 0 .08.16l.19.16a1.13 1.13 0 0 0 .2.13l.11.06.17.09h.13l.07-.06.07-.08.73-.44.17-.09.13-.05a1.25 1.25 0 0 1 .36 0v1.21l.36.14.21.1.14.05h.31a.75.75 0 0 0 .37-.09.87.87 0 0 1 .37-.08.28.28 0 0 1 .23.11.93.93 0 0 1 .15.26 1.9 1.9 0 0 1 .09.29 1.22 1.22 0 0 1 0 .22l.23.1.35.14.36.14a1.57 1.57 0 0 0 .23.06h.07a.63.63 0 0 0 .34-.08.63.63 0 0 1 .33-.09.19.19 0 0 1 .17.08l.09.17a2 2 0 0 0 .1.21.37.37 0 0 0 .21.14l.27.08.48.13.57.16.58.16.47.13.26.08a2.39 2.39 0 0 1 .3.14l.58.28.66.33.5.26a1 1 0 0 1 .2.12l.29.21.27.23a.47.47 0 0 1 .12.19.32.32 0 0 1-.07.29.8.8 0 0 1-.25.18 1.17 1.17 0 0 1-.32.09h-.27c-.41 0-.81 0-1.22-.05l-1.1-.11-1.23-.12c-.41 0-.81-.05-1.22-.05h-1.63c-.62 0-1.3.07-2 .15a17 17 0 0 0-2.21.38 12.29 12.29 0 0 0-2.1.69 6 6 0 0 0-1.71 1.12l-3.2 3.06a1 1 0 0 0 0 .14v.09a.35.35 0 0 0 0 .07c0 .08 0 .24.1.46s.11.46.17.7.12.49.17.71.11.38.14.46a.86.86 0 0 1 .35.42 1.57 1.57 0 0 1 .11.53v.11a.54.54 0 0 0 0 .11 10.19 10.19 0 0 1-1.69.17H8.01a6.33 6.33 0 0 0-.13.7v.67a.51.51 0 0 0 .07.3 1.92 1.92 0 0 0 .16.21 1.56 1.56 0 0 1 .16.2.4.4 0 0 1 .08.26c0 .07-.06.13-.17.18a2 2 0 0 1-.43.12 4.85 4.85 0 0 1-.58.07H5.61a3.08 3.08 0 0 1-.48 0 2.86 2.86 0 0 1-.52-.16 1.5 1.5 0 0 1-.43-.3.64.64 0 0 1-.18-.38v-.14a.51.51 0 0 0 0-.1.4.4 0 0 1 0-.13c0-.07.06-.15.1-.23a2.14 2.14 0 0 0 .1-.22.59.59 0 0 0 0-.14 10.38 10.38 0 0 0 .1-1.2c0-.45 0-.89.06-1.35s.09-.89.16-1.31A3.41 3.41 0 0 1 5 21.14h-.4c-.38.06-.75.14-1.11.22l-1.09.25c-.37.08-.73.14-1.1.19a7.12 7.12 0 0 1-1.14.08 10.8 10.8 0 0 1-1.39-.08 13.13 13.13 0 0 0-1.4-.07h-.06c0 .14 0 .31-.05.49s0 .36-.08.55-.08.36-.13.54a2.2 2.2 0 0 1-.19.47 5.41 5.41 0 0 1-.5.65l-.62.7c-.22.24-.43.48-.64.73a5.79 5.79 0 0 0-.58.75 3.37 3.37 0 0 0-.42.76 2 2 0 0 0-.16.78 1.07 1.07 0 0 0 .18.63 3.81 3.81 0 0 0 .4.5c.14.15.27.31.4.48a1 1 0 0 1 .18.61c-.87 0-1.71 0-2.54-.05z"/></g></svg>