<svg xmlns="http://www.w3.org/2000/svg" width="256" height="256" viewBox="0 0 256 256"><circle cx="128.5" cy="128.5" r="123.5" fill="#71eaff"/><path fill="#c2a063" d="M128.5 252a123.54 123.54 0 0 0 119-90.41c-2.69 1.1-5.5 2.5-8.42 3.41-8.78 1.08-18.53-14.78-28.94 0-10.41-16.12-21.47 4.28-32.85 0-11.38 3.1-23.09 4.62-34.8 0-11.71 3.61-23.42 2.05-34.8 0-11.38-1.42-22.44-.29-32.85 0-10.41-.93-20.16 6.14-28.94 0-8.79-.18-16.59-3.44-23.1 0-5.06.18-9.33-1.7-12.67-1.15A123.56 123.56 0 0 0 128.5 252z"/><path fill="#647600" d="M124.71 190.49a4.52 4.52 0 0 1-1.28-1.18 7.06 7.06 0 0 1-.83-1.53 7.73 7.73 0 0 1-.44-1.7 11.32 11.32 0 0 1-.13-1.71 22.1 22.1 0 0 1 .42-4.34 38 38 0 0 1 1.06-4.17q.66-2.06 1.44-4.08c.52-1.35 1-2.72 1.52-4.1V163l-6.13-1.88a13 13 0 0 1-2.49 2.39 21 21 0 0 1-2.79 1.7c-1 .51-2 1-3 1.43s-2.08.94-3.12 1.49a2.8 2.8 0 0 0-.37.2l-.41.25a3 3 0 0 0-.37.26.64.64 0 0 0-.19.19l-2.6 5.22a1.88 1.88 0 0 0 0 .19 3.25 3.25 0 0 0 .38 1.41 10.14 10.14 0 0 0 .93 1.48 9.6 9.6 0 0 0 1.15 1.29 6.51 6.51 0 0 0 1.08.87v.51c-1.45.17-2.75.29-3.91.36s-2.35.09-3.59.09h-5.3l-1.31-.45c-.3-.53-.54-1-.73-1.37l-.58-1.16c-.19-.4-.34-.72-.44-1a8.08 8.08 0 0 1-.55-1.59c-.12-.55-.23-1.11-.31-1.68s-.16-1.12-.23-1.69-.14-1.11-.22-1.64h-.89l-6.31 3.37q-3.14 1.67-6.33 3.17t-6.48 2.76a56.48 56.48 0 0 1-6.76 2.12l-2.76.61c-1.25.27-2.64.59-4.2 1l-4.91 1.1-4.91 1.1c-1.56.36-3 .66-4.18.93s-2.15.45-2.75.56c-2.57.42-5.14.75-7.7 1s-5.15.34-7.77.34h-.62a2.77 2.77 0 0 1-.71-.05 1.33 1.33 0 0 1-.57-.24.67.67 0 0 1-.24-.59 1.39 1.39 0 0 1 0-.27 1.19 1.19 0 0 0 0-.17c.26 0 .72-.1 1.39-.23l2.12-.41 2.13-.42 1.38-.25.39-.1.52-.12.51-.13a1.88 1.88 0 0 0 .34-.13l-2.62-3.48v-.89a3.55 3.55 0 0 1 .45.19 1.08 1.08 0 0 1 .41.26c.13.12.38.34.75.65s.78.63 1.22 1 .84.63 1.22.9.65.46.8.55h.32a2.28 2.28 0 0 0 .32 0 3.89 3.89 0 0 0 .72-.13 6 6 0 0 0 1.11-.36 3 3 0 0 0 .91-.58.53.53 0 0 0 .13-.72l-3.09-4.4v-1.24l4.01 3.43a1.85 1.85 0 0 0 .53-.51 4.56 4.56 0 0 0 .38-.59c.12-.2.24-.4.37-.6a2 2 0 0 1 .48-.53v3.54l.86.86.53-.23 1.19-.58 1.44-.7c.49-.25.9-.46 1.24-.66a3.22 3.22 0 0 0 1.33-1.31 11.64 11.64 0 0 0 .87-1.88l.77-2a6.72 6.72 0 0 1 1-1.78.43.43 0 0 1 .36.22 1.05 1.05 0 0 1 .15.43 2.37 2.37 0 0 1 0 .46v.35a4.74 4.74 0 0 1-.26 1.57 4.72 4.72 0 0 0-.25 1.56v.19a1.4 1.4 0 0 0 .87-.62 3.88 3.88 0 0 0 .37-.9c.09-.3.19-.6.3-.89a1.15 1.15 0 0 1 .69-.62 6.54 6.54 0 0 0 2.78.14 5.71 5.71 0 0 0 2.1-.83 6.47 6.47 0 0 0 1.52-1.37 11.75 11.75 0 0 0 1-1.5 12.07 12.07 0 0 0 .6-1.21c.14-.33.23-.5.28-.5h3.51l5.27-5.34a1.16 1.16 0 0 0 .24-.41 1.79 1.79 0 0 1 .24-.48v-.23a5.25 5.25 0 0 0-.26-1.66 5.29 5.29 0 0 1-.25-1.68v-.26a3.74 3.74 0 0 1 .08-.8c0-.27.19-.41.43-.41h4.37c.08-.3.15-.56.19-.77s.09-.43.13-.65.07-.41.1-.56.05-.47.11-.88.1-.86.16-1.32.1-.91.14-1.31.06-.69.06-.86l6.54-1.35c.15 0 .41-.22.79-.62s.75-.82 1.14-1.3.75-.92 1.06-1.33l.52-.67a2.35 2.35 0 0 0-.59-.62 6.17 6.17 0 0 1-.55-.43 2.06 2.06 0 0 1-.44-.56 2.25 2.25 0 0 1-.17-1v-2.16c0-.59.07-1.2.12-1.86s.11-1.28.16-1.85.11-1 .15-1.22c0 0 .07-.16.14-.35A4.69 4.69 0 0 1 84 136c.14-.24.27-.36.4-.36h4.18v-4.78l.64-.67h10.03l2.65-3.73a1.51 1.51 0 0 0-.88-.82 10.42 10.42 0 0 0-1.26-.36 7.84 7.84 0 0 1-1.29-.44 1.9 1.9 0 0 1-1-1c-.09-.36-.16-.66-.21-.89s-.1-.48-.15-.72-.07-.44-.09-.59v-.45c-.09-1.15-.16-2.26-.23-3.33a12.38 12.38 0 0 0-.63-3.24c-.15-.43-.33-.86-.53-1.31s-.4-.89-.59-1.34a12 12 0 0 1-.48-1.34 4.77 4.77 0 0 1-.19-1.34 1.17 1.17 0 0 1 .14-.61c.1-.14.35-.22.75-.22h10.53v-8.36c0-.06.11-.15.34-.25a1.84 1.84 0 0 1 .56-.19h1.72a15.3 15.3 0 0 1 3.87.51 38.15 38.15 0 0 1 3.88 1.26c1.28.5 2.52 1 3.74 1.6s2.36 1.07 3.44 1.52v-.61c0-.3.07-.61.11-.94s.1-.64.16-.94a4.37 4.37 0 0 1 .16-.61 9.39 9.39 0 0 1 .25-.94c.15-.48.34-1 .56-1.66s.46-1.3.71-2 .47-1.38.7-2 .41-1.17.55-1.64a7.4 7.4 0 0 0 .26-.93c0-.13.05-.43.1-.91s.08-1 .12-1.53.09-1 .13-1.51a5.24 5.24 0 0 1 .13-.9c.06-.51.12-.86.16-1.07s.26-.3.67-.3a2.1 2.1 0 0 1 1 .35 11.13 11.13 0 0 1 1.17.81c.38.31.73.62 1.05.91l.7.64c.13.11.42.38.88.82l1.5 1.4 1.53 1.39a8.78 8.78 0 0 0 .94.76c.13.11.43.31.9.61l1.51 1 1.52.94c.47.28.76.47.89.56l.45.44h.22a1.75 1.75 0 0 0 1.23-.69 17.35 17.35 0 0 0 1.4-1.67c.49-.66 1-1.37 1.56-2.14s1.12-1.48 1.69-2.14a11.91 11.91 0 0 1 1.75-1.64 2.9 2.9 0 0 1 1.74-.65 1.92 1.92 0 0 1 1.6.87 8.68 8.68 0 0 1 1.07 2.06c.28.79.54 1.57.76 2.36a7.63 7.63 0 0 0 .72 1.79h.22a2.93 2.93 0 0 0 1.49-.42 14.88 14.88 0 0 0 1.4-.92 15.86 15.86 0 0 1 1.43-.93 3.2 3.2 0 0 1 1.57-.41h.35a2.91 2.91 0 0 1 .6.06.51.51 0 0 1 .39.42l2.17 8.77v.22a3.25 3.25 0 0 1-.27 1.26 8 8 0 0 1-.6 1.17c.09 0 .26.13.5.27s.51.28.8.43l.79.4a2.73 2.73 0 0 0 .53.21h.45l1.23-.94 1.86-1.47 1.85-1.47 1.22-1 .22-.15.41-.25.42-.27.25-.19a5.18 5.18 0 0 1 .5-.26 1.78 1.78 0 0 1 .37-.16.67.67 0 0 1 .27.19 4 4 0 0 1 .28.37 2.55 2.55 0 0 1 .24.41.76.76 0 0 1 .1.31h3.29v12.31a2 2 0 0 1 .33.18 1.12 1.12 0 0 1 .34.27l.55.53c.29.26.6.54 1 .83l.95.79a7 7 0 0 0 .61.47 5.32 5.32 0 0 1 1.15-1.23 9.83 9.83 0 0 1 1.51-1 8.38 8.38 0 0 1 1.69-.67 6.42 6.42 0 0 1 1.68-.24l.54.06c.09 0 .17.17.24.43s.14.41.21.43a1.39 1.39 0 0 0 .86.24 3.64 3.64 0 0 1 .51 0 .29.29 0 0 1 .3.19 3.39 3.39 0 0 1 .08 1c0 .57 0 1.21.08 1.9a20.26 20.26 0 0 1 .07 2.06 9.19 9.19 0 0 1-.23 1.93 2.9 2.9 0 0 1-.81 1.48c.23.28.53.62.89 1a14.25 14.25 0 0 0 1.17 1.16 7.85 7.85 0 0 0 1.27 1 2.37 2.37 0 0 0 1.23.4 3.4 3.4 0 0 0 .42 0h.28a7.57 7.57 0 0 0 .91-.29l1.53-.56 1.54-.57c.48-.18.77-.29.87-.34h.23a1.52 1.52 0 0 1 1 .31 2.16 2.16 0 0 1 .6.76 3.73 3.73 0 0 1 .32 1 5.33 5.33 0 0 1 .1 1 4.08 4.08 0 0 1-.24 1.4 4.27 4.27 0 0 0-.24 1.44.7.7 0 0 0 .25.48 5.23 5.23 0 0 0 .56.48c.2.14.4.27.59.38l.35.19.51.26a1.59 1.59 0 0 0 .39.15s.09-.06.2-.19l.21-.22 2.2-1.34.51-.26a1.87 1.87 0 0 1 .39-.16 4.84 4.84 0 0 1 1.08-.12v3.63l1.09.42.63.3a1.7 1.7 0 0 0 .42.16 1.65 1.65 0 0 0 .38.05h.48a2.22 2.22 0 0 0 1.11-.26 2.47 2.47 0 0 1 1.12-.25.87.87 0 0 1 .67.33 2.93 2.93 0 0 1 .46.79 5.1 5.1 0 0 1 .27.87 3.56 3.56 0 0 1 .09.66l.7.3 1 .43c.38.15.74.29 1.07.4a5.14 5.14 0 0 0 .71.21h.22a2.11 2.11 0 0 0 1-.26 2 2 0 0 1 1-.25.56.56 0 0 1 .5.22 4.32 4.32 0 0 1 .27.53 4.2 4.2 0 0 0 .3.6 1 1 0 0 0 .62.44l.82.23 1.43.4 1.74.48 1.74.48 1.4.4c.4.11.66.2.79.24a9.23 9.23 0 0 1 .89.4c.51.24 1.09.53 1.75.86l2 1 1.51.78a2.84 2.84 0 0 1 .61.35c.27.19.56.4.86.64a9.31 9.31 0 0 1 .8.7 1.23 1.23 0 0 1 .38.54 1 1 0 0 1-.21.88 2.37 2.37 0 0 1-.76.54 3.69 3.69 0 0 1-1 .29 5.91 5.91 0 0 1-.8.08c-1.21 0-2.43 0-3.67-.16l-3.68-.34-3.69-.33c-1.23-.11-2.45-.16-3.66-.16h-4.92q-2.78.11-6.09.45a53.86 53.86 0 0 0-6.62 1.13 36.94 36.94 0 0 0-6.3 2.09 17.38 17.38 0 0 0-5.14 3.35l-9.64 9.19v.9c.07.25.17.71.32 1.38s.32 1.38.5 2.12.35 1.46.52 2.13a11 11 0 0 0 .42 1.39 2.45 2.45 0 0 1 1 1.25 4.43 4.43 0 0 1 .33 1.58 3.1 3.1 0 0 1 0 .34 3.19 3.19 0 0 0 0 .33 30.66 30.66 0 0 1-5.06.5c-1.76 0-3.43 0-5-.05a16.8 16.8 0 0 0-.38 2.11 20.05 20.05 0 0 0-.09 2 1.64 1.64 0 0 0 .22.91 6 6 0 0 0 .48.62c.17.19.33.39.48.59a1.33 1.33 0 0 1 .22.78c0 .21-.17.4-.51.54a6.12 6.12 0 0 1-1.29.37 16.15 16.15 0 0 1-1.74.22c-.64 0-1.26.1-1.85.13l-1.6.06h-1a9.13 9.13 0 0 1-1.43-.14 6.9 6.9 0 0 1-1.58-.48 4.22 4.22 0 0 1-1.28-.88 1.85 1.85 0 0 1-.52-1.34v-.7a1.52 1.52 0 0 1 .19-.3c.08-.21.18-.43.3-.67s.22-.45.3-.67a1.4 1.4 0 0 0 .13-.41 27.57 27.57 0 0 0 .3-3.62c0-1.33.1-2.68.19-4a35 35 0 0 1 .5-3.94 9.82 9.82 0 0 1 1.21-3.33h-.34a1.85 1.85 0 0 0-.3 0 2.23 2.23 0 0 0-.4 0h-.27c-1.15.19-2.26.41-3.35.67s-2.17.5-3.27.73-2.2.43-3.3.59a24 24 0 0 1-3.42.24 36.65 36.65 0 0 1-4.19-.24 36.7 36.7 0 0 0-4.2-.24h-.19c0 .45-.09.94-.14 1.49a16.22 16.22 0 0 1-.24 1.64c-.11.55-.23 1.1-.38 1.63a5.77 5.77 0 0 1-.58 1.4 15.2 15.2 0 0 1-1.5 2c-.59.68-1.22 1.38-1.86 2.09s-1.3 1.44-1.93 2.18a28.42 28.42 0 0 0-1.74 2.25A11.86 11.86 0 0 0 137 182a6.13 6.13 0 0 0-.48 2.35 3.24 3.24 0 0 0 .54 1.89 12.23 12.23 0 0 0 1.2 1.49 14.77 14.77 0 0 1 1.19 1.45A3.05 3.05 0 0 1 140 191c-2.6 0-5.14 0-7.63-.14s-5.02-.22-7.66-.37z"/><path d="M66.4 197.05c-4.49 0-7.59-1.36-9.2-4a13.37 13.37 0 0 1-1.48-6.71v-35.92a22.19 22.19 0 0 1 .14-2.94 10 10 0 0 1 1.14-3.36c1.5-2.9 4.68-4.38 9.44-4.38l12 .06a28.08 28.08 0 0 1 19.87 8.12 26.89 26.89 0 0 1 8.69 20.21 28.1 28.1 0 0 1-8.38 20.39 27.66 27.66 0 0 1-20.37 8.53zm12-21.43a7.08 7.08 0 0 0 5-2.12 6.38 6.38 0 0 0 2.13-5 6.73 6.73 0 0 0-2.11-5.15 7 7 0 0 0-5.08-2.11h-1.2v14.39z"/><path d="M111.77 197.11c-4.72 0-7.88-1.49-9.41-4.44l-.07-.15a10.67 10.67 0 0 1-1-3.16 21.5 21.5 0 0 1-.15-2.93v-22.65a23.89 23.89 0 0 1 .14-2.88 10.83 10.83 0 0 1 1-3.17l.1-.21a7.08 7.08 0 0 1 1.26-1.7 7.62 7.62 0 0 1-1.27-1.81 10.39 10.39 0 0 1-1.07-3.3 23.59 23.59 0 0 1-.14-2.87 23.89 23.89 0 0 1 .14-2.88 10 10 0 0 1 1-3.23c1.55-3 4.75-4.51 9.5-4.51s7.89 1.51 9.37 4.49a9.73 9.73 0 0 1 1.11 3.31 24.13 24.13 0 0 1 .14 2.88 23.59 23.59 0 0 1-.14 2.87 9.87 9.87 0 0 1-1.1 3.33 7.59 7.59 0 0 1-1.28 1.78 8.59 8.59 0 0 1 2.45 5.87c0 .5.07 1.23.07 2.16v22.59a23.83 23.83 0 0 1-.14 2.87 9.93 9.93 0 0 1-1.16 3.41c-1.39 2.86-4.56 4.33-9.35 4.33z"/><path d="M150.88 197.05c-7.16 0-9.37-3.68-10-5.86a14.73 14.73 0 0 1-.63-4.82V175a2.82 2.82 0 0 0 0-.57 2.19 2.19 0 0 0-.53-.05 1.16 1.16 0 0 0-.64.13s-.08.14-.08.49v11.42a23.91 23.91 0 0 1-.13 2.88 9.51 9.51 0 0 1-1.18 3.38c-1.46 2.87-4.62 4.36-9.36 4.36s-7.89-1.5-9.41-4.45l-.07-.14a10.57 10.57 0 0 1-1-3.22 23.59 23.59 0 0 1-.14-2.87v-22.84a23 23 0 0 1 .14-2.81 9.29 9.29 0 0 1 1.23-3.48c1.53-2.74 4.67-4.13 9.31-4.13a13.05 13.05 0 0 1 6.83 1.59 13.37 13.37 0 0 1 6.4-1.59 18.54 18.54 0 0 1 14.38 6.65 22.68 22.68 0 0 1 5.52 15.32v11.36a23.54 23.54 0 0 1-.14 2.88 10.16 10.16 0 0 1-1 3.23c-1.55 3-4.75 4.51-9.5 4.51z"/><path d="M178.5 197.69a22.63 22.63 0 0 1-10.58-2.69 23.34 23.34 0 0 1-8.58-7.84 21.27 21.27 0 0 1-3.59-12 21.61 21.61 0 0 1 7-16.45 22.73 22.73 0 0 1 31.54 0 21.55 21.55 0 0 1 6.94 16.4 21.79 21.79 0 0 1-3.61 12.3 22.44 22.44 0 0 1-8.62 7.79 23.32 23.32 0 0 1-10.5 2.49zm0-24a1.74 1.74 0 0 0-1.18.51s-.14.21-.14.85a1.89 1.89 0 0 0 .1.75 2.23 2.23 0 0 0 1.16.54 2.31 2.31 0 0 0 1.24-.6s.15-.2.15-.79a2.38 2.38 0 0 0-.1-.78 1.9 1.9 0 0 0-1.23-.49z"/><path fill="#fff" d="M66.4 195.05c-1.4 0-5.64 0-7.48-3.07a11.28 11.28 0 0 1-1.2-5.68v-35.88a21.91 21.91 0 0 1 .12-2.67 8.14 8.14 0 0 1 .94-2.68c1.72-3.33 6.21-3.33 7.68-3.33l12 .06a26.17 26.17 0 0 1 18.5 7.57 25 25 0 0 1 8 18.76 26.22 26.22 0 0 1-7.8 19 25.76 25.76 0 0 1-19 7.93zm12-17.43a9.1 9.1 0 0 0 6.36-2.62 8.34 8.34 0 0 0 2.77-6.47 8.71 8.71 0 0 0-2.73-6.59 8.93 8.93 0 0 0-6.46-2.67h-3.2v18.39z"/><path fill="#fff" d="M111.77 195.11c-1.46 0-5.89 0-7.63-3.36l-.06-.11a8.74 8.74 0 0 1-.8-2.55 19.4 19.4 0 0 1-.13-2.66v-22.65a19.63 19.63 0 0 1 .13-2.62 8.57 8.57 0 0 1 .8-2.59l.08-.15a5.66 5.66 0 0 1 3.08-2.57 5.6 5.6 0 0 1-3.09-2.73 8.14 8.14 0 0 1-.87-2.67 26.37 26.37 0 0 1 0-5.23 8.15 8.15 0 0 1 .83-2.6c1.77-3.4 6.25-3.4 7.72-3.4 3.92 0 6.47 1.14 7.58 3.38a8.14 8.14 0 0 1 .92 2.68 22 22 0 0 1 .12 2.62 21.58 21.58 0 0 1-.12 2.61 8.18 8.18 0 0 1-.9 2.67 5.59 5.59 0 0 1-3.13 2.69 6.83 6.83 0 0 1 1.86 1.1 6.41 6.41 0 0 1 2.22 4.87c.05.53.07 1.2.07 2.07v22.59a21.69 21.69 0 0 1-.12 2.61 8.08 8.08 0 0 1-.94 2.73c-1.64 3.27-6.14 3.27-7.62 3.27z"/><path fill="#fff" d="M150.88 195.05c-5.57 0-7.51-2.41-8.14-4.46a13 13 0 0 1-.54-4.22V175c0-1.39-.46-1.84-.62-2a2.54 2.54 0 0 0-2-.63 2.71 2.71 0 0 0-2 .69 2.47 2.47 0 0 0-.68 1.93v11.42a19.85 19.85 0 0 1-.12 2.62 7.29 7.29 0 0 1-.94 2.66c-1.69 3.34-6.14 3.34-7.61 3.34s-5.9 0-7.64-3.37v-.11a8.82 8.82 0 0 1-.81-2.59 21.58 21.58 0 0 1-.12-2.61v-22.83a21 21 0 0 1 .12-2.55 7.46 7.46 0 0 1 1-2.75c1.75-3.12 6.13-3.12 7.57-3.12 1.23 0 4.67 0 6.68 2l.08-.05a11.48 11.48 0 0 1 6.47-2 16.6 16.6 0 0 1 13 6 20.67 20.67 0 0 1 5 14v11.36a21.76 21.76 0 0 1-.12 2.62 8.44 8.44 0 0 1-.84 2.6c-1.79 3.42-6.27 3.42-7.74 3.42z"/><path fill="#fff" d="M178.5 195.69a20.63 20.63 0 0 1-9.65-2.44 21.4 21.4 0 0 1-7.85-7.18 19.34 19.34 0 0 1-3.25-10.93 19.65 19.65 0 0 1 6.38-15 20.72 20.72 0 0 1 28.81 0 20.79 20.79 0 0 1 3 26.13 20.48 20.48 0 0 1-7.91 7.15 21.34 21.34 0 0 1-9.53 2.27zm0-24a3.77 3.77 0 0 0-2.44.95 2.74 2.74 0 0 0-.88 2.41 2.57 2.57 0 0 0 .89 2.33 3.91 3.91 0 0 0 2.37 1 4.17 4.17 0 0 0 2.45-1 2.64 2.64 0 0 0 .94-2.39c0-1.69-.61-2.16-.84-2.34a4 4 0 0 0-2.49-.97z"/><path fill="#4a4a00" d="M66.46 144.74l11.94.06a23.18 23.18 0 0 1 16.46 6.75 22 22 0 0 1 7.1 16.58A23.16 23.16 0 0 1 95 185a22.75 22.75 0 0 1-16.81 7H66.4c-2.63 0-4.26-.54-4.91-1.62a8.53 8.53 0 0 1-.77-4.13v-35.83a19.92 19.92 0 0 1 .09-2.26 5.31 5.31 0 0 1 .62-1.68q.9-1.74 5.03-1.74zm20.33 32.43a11.29 11.29 0 0 0 3.74-8.68 11.67 11.67 0 0 0-3.64-8.75 11.93 11.93 0 0 0-8.55-3.51h-6.2v24.39h6.26a12.06 12.06 0 0 0 8.39-3.45zm29.98-25.37a2.72 2.72 0 0 1-1.71 1.33 13.82 13.82 0 0 1-6.52 0 2.69 2.69 0 0 1-1.71-1.36 5.4 5.4 0 0 1-.58-1.71 19.42 19.42 0 0 1-.1-2.22 19.63 19.63 0 0 1 .1-2.23 5.31 5.31 0 0 1 .55-1.65q.9-1.74 5-1.74t4.91 1.74a5.22 5.22 0 0 1 .61 1.71 24.91 24.91 0 0 1 0 4.46 5.13 5.13 0 0 1-.55 1.67zm-10.62 12a19.76 19.76 0 0 1 .1-2.23 6 6 0 0 1 .55-1.71q.9-1.68 5-1.68c2.07 0 3.53.37 4.39 1.1a3.55 3.55 0 0 1 1.16 2.78 17.66 17.66 0 0 1 .07 1.87v22.57a17.33 17.33 0 0 1-.1 2.22 5.07 5.07 0 0 1-.61 1.71q-.84 1.68-5 1.68t-5-1.74a5.92 5.92 0 0 1-.55-1.68 19.47 19.47 0 0 1-.1-2.26zm35.37-5.7a13.65 13.65 0 0 1 10.75 4.9 17.7 17.7 0 0 1 4.29 12v11.36a17.61 17.61 0 0 1-.1 2.23 5.18 5.18 0 0 1-.55 1.64q-.9 1.75-5 1.75-4.59 0-5.29-2.39a10.44 10.44 0 0 1-.39-3.29V175a5.2 5.2 0 0 0-5.58-5.62 5.65 5.65 0 0 0-4.13 1.55 5.42 5.42 0 0 0-1.62 4.07v11.42a20.29 20.29 0 0 1-.09 2.23 4.76 4.76 0 0 1-.61 1.64c-.57 1.17-2.22 1.75-5 1.75s-4.37-.58-5-1.75a5.51 5.51 0 0 1-.55-1.71 17.33 17.33 0 0 1-.1-2.22v-22.84a16.68 16.68 0 0 1 .1-2.16 4.54 4.54 0 0 1 .61-1.65q.9-1.61 5-1.61c2.62 0 4.24.49 4.84 1.48a5.15 5.15 0 0 1 .65 2.65 6.28 6.28 0 0 1 1.16-1.29 11.54 11.54 0 0 1 1.74-1.36 8.45 8.45 0 0 1 4.87-1.48zm24.66 4.26a17.71 17.71 0 0 1 24.72 0 17.8 17.8 0 0 1 2.58 22.26 17.33 17.33 0 0 1-6.75 6.13 18.19 18.19 0 0 1-8.23 2 17.57 17.57 0 0 1-8.26-2.1 18.23 18.23 0 0 1-6.74-6.19 16.26 16.26 0 0 1-2.75-9.26 16.65 16.65 0 0 1 5.43-12.84zm8.06 17.39a6.84 6.84 0 0 0 4.2 1.58 7.07 7.07 0 0 0 4.26-1.61 6.49 6.49 0 0 0 .13-9.49 7 7 0 0 0-4.33-1.55 6.72 6.72 0 0 0-4.32 1.62 5.7 5.7 0 0 0-2 4.74 5.57 5.57 0 0 0 2.06 4.71z"/><path d="M62.32 243.22a7.74 7.74 0 0 1-4.81-1.55 8.94 8.94 0 0 1-2.29-2.49l-.1-.19c-.3-.57-.91-1.87-3.22-7.33h-.45v1.28a21.75 21.75 0 0 1-.12 2.57 9.32 9.32 0 0 1-1.08 3.17c-1.42 2.75-4.37 4.15-8.74 4.15-6.55 0-8.65-3.45-9.32-5.51a13.47 13.47 0 0 1-.57-4.44V202a21.56 21.56 0 0 1 .12-2.56 9.3 9.3 0 0 1 1.08-3.18c1.42-2.75 4.36-4.15 8.74-4.15h12a20.36 20.36 0 0 1 12.56 4.6 18.1 18.1 0 0 1 5.1 6.42 19.72 19.72 0 0 1 2 8.76 19.08 19.08 0 0 1-3.37 11.22c.7 1.6 1.55 3.55 2.55 5.82a12.81 12.81 0 0 1 1.26 4.91c0 2-.84 5.8-6.51 8.17a12.06 12.06 0 0 1-4.83 1.21z"/><path d="M85.52 243.61a22.87 22.87 0 0 1-9.34-1.85 17.42 17.42 0 0 1-6.92-5.29 20.85 20.85 0 0 1-4.52-13.09c0-6.09 2.06-11.09 6.13-14.86a20.9 20.9 0 0 1 14.7-5.52c6.91 0 12.12 2.58 15.51 7.68a16.4 16.4 0 0 1 2.72 9.07 11.61 11.61 0 0 1-3 8.48c.12.2.23.4.33.61a11.12 11.12 0 0 1 1.27 4.83c-.05 4.53-2.97 9.94-16.88 9.94z"/><path d="M112.94 243.39a24.11 24.11 0 0 1-13-3.88 7.33 7.33 0 0 1-3.39-6.35c0-2.1.93-4.33 3-7.25.1-.15.2-.29.31-.43a14.8 14.8 0 0 1-.75-1.36 16.38 16.38 0 0 1-1.57-7.29c0-4.15 1.66-13.79 17.06-13.79a24.58 24.58 0 0 1 10.17 2.34c4.41 2 4.88 5.41 4.88 6.78a11.19 11.19 0 0 1-2 5.94c-.14.23-.3.46-.45.68a12.38 12.38 0 0 1 2 2.67 14.59 14.59 0 0 1 1.73 7.27 15.26 15.26 0 0 1-1.63 7.28 12 12 0 0 1-5.15 5.12 25.51 25.51 0 0 1-11.21 2.27z"/><path d="M143.87 243.16a20.88 20.88 0 0 1-13-4.78 18.1 18.1 0 0 1-5.14-6.51 19.79 19.79 0 0 1-2-8.74 19.36 19.36 0 0 1 2-8.72 18.36 18.36 0 0 1 5.12-6.42 20.43 20.43 0 0 1 12.91-4.72 19.69 19.69 0 0 1 5.52.78 18.28 18.28 0 0 1 4.08 1.63l1 .62c.83.55 1.38.93 1.77 1.2l.15.11a8.17 8.17 0 0 1 3.43 6.52 10.86 10.86 0 0 1-2 5.94 14.58 14.58 0 0 1-2.85 3.33 19.12 19.12 0 0 1 2.45 2.55 9.68 9.68 0 0 1 2.39 6.05c0 2.22-.93 5.44-5.33 8.14a18.2 18.2 0 0 1-10.5 3.02z"/><path d="M182.65 242.83a11.93 11.93 0 0 1-5.92-1.29 12.35 12.35 0 0 1-5.41 1.23 16.63 16.63 0 0 1-13.08-6 20.14 20.14 0 0 1-4.93-13.64v-9.72a19.66 19.66 0 0 1 .13-2.61 9.93 9.93 0 0 1 .9-2.9l.07-.15c1.47-2.82 4.42-4.24 8.79-4.24 6.51 0 8.62 3.46 9.3 5.51a9.7 9.7 0 0 1 .43 1.85.25.25 0 0 0 0-.08 9.42 9.42 0 0 1 1.08-3.19c1.35-2.69 4.28-4.09 8.69-4.09 5.4 0 7.72 2.29 8.72 4.2l.07.15a10.41 10.41 0 0 1 .92 3 21.52 21.52 0 0 1 .12 2.57v19.67a21 21 0 0 1-.12 2.51 8.89 8.89 0 0 1-1.15 3.25c-1.51 2.64-4.4 3.97-8.61 3.97z"/><path d="M206.94 243.61a22.8 22.8 0 0 1-9.34-1.85 17.24 17.24 0 0 1-6.92-5.29 20.86 20.86 0 0 1-4.53-13.09c0-6.09 2.07-11.09 6.13-14.86A20.92 20.92 0 0 1 207 203c6.91 0 12.12 2.58 15.5 7.68a16.33 16.33 0 0 1 2.73 9.07 11.61 11.61 0 0 1-3.05 8.48c.12.2.23.4.33.61a11.15 11.15 0 0 1 1.27 4.83c-.01 4.53-2.93 9.94-16.84 9.94z"/><path fill="#fff" d="M62.32 241.22a5.8 5.8 0 0 1-3.6-1.14 7 7 0 0 1-1.78-1.93l-.08-.14c-.26-.5-.93-1.93-3.63-8.35h-3.78v3.28a17.35 17.35 0 0 1-.11 2.31 7.22 7.22 0 0 1-.85 2.49c-1.61 3.09-5.65 3.09-7 3.09-5 0-6.8-2.25-7.41-4.13a11.75 11.75 0 0 1-.48-3.82V202a19.57 19.57 0 0 1 .1-2.3 7.45 7.45 0 0 1 .86-2.5c1.6-3.09 5.65-3.09 7-3.09h12a18.43 18.43 0 0 1 11.34 4.18 16.12 16.12 0 0 1 4.53 5.73 17.75 17.75 0 0 1 1.75 7.87 17 17 0 0 1-3.66 10.94c.76 1.79 1.77 4.11 3 6.91a11 11 0 0 1 1.09 4.1c0 1.88-.91 4.5-5.28 6.33a10.33 10.33 0 0 1-4.01 1.05zm-8.76-27.39a2.46 2.46 0 0 0 1.41-.62c.14-.1.43-.32.43-1.28s-.31-1.21-.45-1.32a2.35 2.35 0 0 0-1.5-.62h-4v3.84z"/><path fill="#fff" d="M85.52 241.61a21 21 0 0 1-8.52-1.68 15.43 15.43 0 0 1-6.14-4.67 19 19 0 0 1-4.11-11.88c0-5.51 1.84-10 5.49-13.4a19 19 0 0 1 13.34-5c6.2 0 10.85 2.28 13.84 6.79a14.29 14.29 0 0 1 2.39 8c0 3.11-.88 5.54-2.61 7.22a9.31 9.31 0 0 1-1.1.91 10.43 10.43 0 0 1 1.21 1.87 9 9 0 0 1 1 3.92c.04 5.24-4.95 7.92-14.79 7.92z"/><path fill="#fff" d="M112.94 241.39a22.16 22.16 0 0 1-11.94-3.58 5.29 5.29 0 0 1-2.45-4.65c0-1.65.81-3.53 2.64-6.09a4.89 4.89 0 0 1 1.33-1.35 12.17 12.17 0 0 1-1.61-2.48 14.46 14.46 0 0 1-1.36-6.41c0-4.4 2-11.79 15.06-11.79a22.7 22.7 0 0 1 9.39 2.16c3.22 1.48 3.7 3.74 3.7 5a9.27 9.27 0 0 1-1.7 4.8 9.17 9.17 0 0 1-1.63 2 9.61 9.61 0 0 1 3.12 3.42 12.64 12.64 0 0 1 1.47 6.29 13.26 13.26 0 0 1-1.44 6.33 10 10 0 0 1-4.3 4.28 23.34 23.34 0 0 1-10.28 2.07z"/><path fill="#fff" d="M143.87 241.16a19 19 0 0 1-11.8-4.35 16.36 16.36 0 0 1-4.57-5.81 17.81 17.81 0 0 1-1.75-7.87 17.39 17.39 0 0 1 1.76-7.83 16.4 16.4 0 0 1 4.56-5.73 18.49 18.49 0 0 1 11.68-4.3 17.59 17.59 0 0 1 5 .7 16.32 16.32 0 0 1 3.62 1.43l1 .6c.76.51 1.3.87 1.68 1.14l.12.08a6.07 6.07 0 0 1 2.61 4.91A8.89 8.89 0 0 1 156 219c-.65 1-2.51 3.84-5.46 4.34 2.21.53 4 2.43 5.17 3.9a7.69 7.69 0 0 1 1.99 4.76c0 2.5-1.49 4.67-4.42 6.46a16.27 16.27 0 0 1-9.41 2.7zm0-19.95a2.32 2.32 0 0 0-1.56.65 1.53 1.53 0 0 0-.53 1.38c0 1 .33 1.24.49 1.37a2.08 2.08 0 0 0 1.38.61 2.77 2.77 0 0 0 1.6-.52 8.46 8.46 0 0 1 3.27-1.46 11.28 11.28 0 0 1-3.39-1.54l-.25-.16-.21-.2a1.74 1.74 0 0 0-.83-.13z"/><path fill="#fff" d="M182.65 240.83c-1.05 0-3.91 0-5.78-1.64a10.42 10.42 0 0 1-5.55 1.58 14.71 14.71 0 0 1-11.57-5.28 18.18 18.18 0 0 1-4.44-12.33v-9.72a19.41 19.41 0 0 1 .11-2.35 8.21 8.21 0 0 1 .73-2.32l.06-.11c1.61-3.12 5.66-3.12 7-3.12 5 0 6.77 2.24 7.4 4.14a11.39 11.39 0 0 1 .49 3.81v9.73c0 1 .31 1.31.41 1.41a1.8 1.8 0 0 0 1.4.42 1.9 1.9 0 0 0 1.46-.48 1.67 1.67 0 0 0 .46-1.35v-9.84a17.54 17.54 0 0 1 .11-2.31 7.22 7.22 0 0 1 .85-2.49c1.52-3 5.59-3 6.93-3 3.53 0 5.87 1.05 6.94 3.12l.06.12a7.84 7.84 0 0 1 .72 2.35 17.35 17.35 0 0 1 .11 2.31v19.67a16.83 16.83 0 0 1-.11 2.25 6.83 6.83 0 0 1-.89 2.52c-1.72 2.91-5.62 2.91-6.9 2.91z"/><path fill="#fff" d="M206.94 241.61a21 21 0 0 1-8.53-1.68 15.36 15.36 0 0 1-6.14-4.67 19 19 0 0 1-4.12-11.88 17.51 17.51 0 0 1 5.49-13.4A19 19 0 0 1 207 205c6.19 0 10.85 2.28 13.84 6.79a14.29 14.29 0 0 1 2.39 8c0 3.12-.88 5.54-2.61 7.22a10.2 10.2 0 0 1-1.1.91 10.43 10.43 0 0 1 1.21 1.87 9 9 0 0 1 1.05 3.92c-.01 5.22-5 7.9-14.84 7.9z"/><path fill="#4a4a00" d="M67.79 231a8.63 8.63 0 0 1 .83 2.88q0 2.12-3.44 3.56a7.65 7.65 0 0 1-2.86.78 2.85 2.85 0 0 1-1.78-.53 3.83 3.83 0 0 1-1-1.08q-.55-1.06-4.33-10.06l-1.73.11h-7v6.28a17.78 17.78 0 0 1-.08 1.92 4.55 4.55 0 0 1-.53 1.47c-.52 1-2 1.5-4.33 1.5-2.6 0-4.12-.68-4.56-2.06a9.37 9.37 0 0 1-.33-2.89V202a15.21 15.21 0 0 1 .08-1.91 4.3 4.3 0 0 1 .53-1.48c.52-1 2-1.5 4.33-1.5h12a15.45 15.45 0 0 1 9.51 3.56 13 13 0 0 1 3.66 4.67 14.58 14.58 0 0 1 1.45 6.55A13.8 13.8 0 0 1 64 222.27q1.24 2.94 3.79 8.73zm-21.34-14.17h7.11a5.32 5.32 0 0 0 3.23-1.23 4.31 4.31 0 0 0 1.61-3.67 4.39 4.39 0 0 0-1.61-3.69 5.43 5.43 0 0 0-3.34-1.24h-7zm52.35 2.91a6.75 6.75 0 0 1-1.7 5.06 5.3 5.3 0 0 1-3.75 1.64H80.18a3 3 0 0 0 1.82 2.61 7.31 7.31 0 0 0 3.66 1.06 15.41 15.41 0 0 0 5.06-.67l.61-.22a5.56 5.56 0 0 1 2.22-.61c1.19 0 2.21.83 3.06 2.5a6.14 6.14 0 0 1 .72 2.55q0 5-11.83 5a17.79 17.79 0 0 1-7.31-1.42 12.28 12.28 0 0 1-5-3.75 15.94 15.94 0 0 1-3.5-10.06q0-7 4.52-11.2A16 16 0 0 1 85.57 208q7.73 0 11.34 5.45a11.25 11.25 0 0 1 1.89 6.29zm-11.73 1.64c1.41 0 2.12-.59 2.12-1.78a2.5 2.5 0 0 0-1-2 4.34 4.34 0 0 0-2.78-.78 5.61 5.61 0 0 0-3.58 1.47 4.12 4.12 0 0 0-1.78 3.14zm15.56 13.89a2.3 2.3 0 0 1-1-2.11q0-1.44 2.11-4.39a2.17 2.17 0 0 1 2-.94 8.09 8.09 0 0 1 3.7 1.36 8.51 8.51 0 0 0 4.22 1.36c2.26 0 3.39-.44 3.39-1.33q0-1.07-3.72-1.56a18.09 18.09 0 0 1-7-2.61 7.5 7.5 0 0 1-2.67-3.14 11.43 11.43 0 0 1-1-5.08q0-8.79 12.06-8.79a19.57 19.57 0 0 1 8.11 1.89c1.29.6 1.94 1.34 1.94 2.23a6.51 6.51 0 0 1-1.22 3.28c-.81 1.29-1.65 1.94-2.5 1.94a7.63 7.63 0 0 1-2.47-.83 9.2 9.2 0 0 0-3.92-.84c-2.19 0-3.28.41-3.28 1.23q0 1.67 3.78 2.16a20.79 20.79 0 0 1 7.11 2.11 6.27 6.27 0 0 1 2.7 2.7 9.7 9.7 0 0 1 1.08 4.81 10.32 10.32 0 0 1-1.08 4.91 6.93 6.93 0 0 1-3 3 20.37 20.37 0 0 1-8.92 1.73 19.07 19.07 0 0 1-10.42-3.09zm36.12-12.03a4.52 4.52 0 0 0 1.56 3.67 5.08 5.08 0 0 0 3.31 1.31 5.7 5.7 0 0 0 3.27-1 4.88 4.88 0 0 1 2.48-1q1.66 0 4 3a4.81 4.81 0 0 1 1.33 2.78c0 1.4-1 2.72-3.06 3.94a13.19 13.19 0 0 1-7.77 2.22 16 16 0 0 1-10-3.72 13.23 13.23 0 0 1-3.72-4.75 14.72 14.72 0 0 1-1.45-6.56 14.37 14.37 0 0 1 1.45-6.5 13.4 13.4 0 0 1 3.72-4.7 15.53 15.53 0 0 1 9.83-3.66 14.65 14.65 0 0 1 4.12.58 13.84 13.84 0 0 1 2.94 1.14l.89.56c.67.44 1.18.79 1.56 1a3.17 3.17 0 0 1 1.44 2.53 6 6 0 0 1-1.17 3.2q-2 3-3.83 3a6.51 6.51 0 0 1-3-1.22 4 4 0 0 0-2.86-.95 5.38 5.38 0 0 0-3.48 1.34 4.54 4.54 0 0 0-1.56 3.79zm32.57 14.53a11.78 11.78 0 0 1-9.31-4.25 15.19 15.19 0 0 1-3.7-10.36v-9.72a15 15 0 0 1 .09-1.95 5 5 0 0 1 .47-1.45c.52-1 2-1.5 4.33-1.5q3.9 0 4.56 2.12a8.77 8.77 0 0 1 .33 2.83v9.73a4.75 4.75 0 0 0 1.31 3.55 4.8 4.8 0 0 0 3.5 1.28 4.88 4.88 0 0 0 3.56-1.33 4.72 4.72 0 0 0 1.36-3.5v-9.84a17.78 17.78 0 0 1 .08-1.92 4.55 4.55 0 0 1 .53-1.47c.48-1 1.91-1.45 4.28-1.45s3.76.5 4.28 1.5a5.3 5.3 0 0 1 .47 1.48 15.29 15.29 0 0 1 .08 1.92v19.67a14.81 14.81 0 0 1-.08 1.86 4 4 0 0 1-.53 1.42c-.55 1-2 1.44-4.28 1.44s-3.65-.44-4.16-1.33a4.33 4.33 0 0 1-.56-2.28 5.61 5.61 0 0 1-1 1.11 13.66 13.66 0 0 1-1.5 1.22 7.38 7.38 0 0 1-4.11 1.22zm48.9-18.03a6.75 6.75 0 0 1-1.7 5.06 5.3 5.3 0 0 1-3.75 1.64H201.6a3 3 0 0 0 1.83 2.61 7.38 7.38 0 0 0 3.67 1.06 15.41 15.41 0 0 0 5.06-.67l.61-.22a5.56 5.56 0 0 1 2.22-.61c1.19 0 2.21.83 3.06 2.5a6.14 6.14 0 0 1 .72 2.55q0 5-11.83 5a17.76 17.76 0 0 1-7.31-1.42 12.39 12.39 0 0 1-5-3.75 16 16 0 0 1-3.5-10.06q0-7 4.53-11.2A16 16 0 0 1 207 208q7.72 0 11.34 5.45a11.25 11.25 0 0 1 1.88 6.29zm-11.73 1.64c1.41 0 2.11-.59 2.11-1.78a2.49 2.49 0 0 0-1-2 4.34 4.34 0 0 0-2.78-.78 5.61 5.61 0 0 0-3.58 1.47 4.12 4.12 0 0 0-1.78 3.14z"/></svg>